<?xml version="1.0" encoding="UTF-8"?>
<svg xmlns="http://www.w3.org/2000/svg" xmlns:xlink="http://www.w3.org/1999/xlink" width="24px" height="30px" viewBox="0 0 24 30" version="1.1">
<g id="surface1">
<path style=" stroke:none;fill-rule:nonzero;fill:rgb(0%,0%,0%);fill-opacity:1;" d="M 18 8 C 18 11.3125 15.3125 14 12 14 C 8.6875 14 6 11.3125 6 8 C 6 4.6875 8.6875 2 12 2 C 15.3125 2 18 4.6875 18 8 Z M 18 8 "/>
<path style=" stroke:none;fill-rule:nonzero;fill:rgb(0%,0%,0%);fill-opacity:1;" d="M 21.800781 20.398438 L 21 19.289062 C 19.433594 17.214844 16.980469 15.996094 14.378906 16 L 9.46875 16 C 6.347656 15.988281 3.488281 17.753906 2.101562 20.550781 C 1.941406 20.859375 1.960938 21.230469 2.144531 21.527344 C 2.328125 21.824219 2.652344 22.003906 3 22 L 21 22 C 21.378906 22 21.726562 21.785156 21.894531 21.445312 C 22.0625 21.109375 22.027344 20.703125 21.800781 20.398438 Z M 21.800781 20.398438 "/>
</g>
</svg>
