<?xml version="1.0" encoding="UTF-8"?>
<svg xmlns="http://www.w3.org/2000/svg" xmlns:xlink="http://www.w3.org/1999/xlink" width="30px" height="30px" viewBox="0 0 30 30" version="1.1">
<g id="surface1">
<path style=" stroke:none;fill-rule:nonzero;fill:rgb(0%,0%,0%);fill-opacity:1;" d="M 27.929688 10.941406 L 27.574219 10.734375 L 29.5625 9.585938 L 29.5625 8.550781 L 21.917969 4.132812 C 20.949219 3.574219 20.074219 3.542969 19.460938 3.949219 L 19.460938 3.945312 L 1.023438 14.589844 L 0.945312 14.636719 L 0.902344 14.660156 C 0.34375 15.027344 0.00390625 15.753906 0 16.761719 C -0.00390625 18.882812 1.492188 21.476562 3.339844 22.542969 L 9.359375 26.019531 C 9.96875 26.371094 10.519531 26.410156 10.898438 26.1875 L 10.941406 26.164062 L 29.417969 15.496094 L 29.457031 15.472656 L 29.457031 15.46875 C 29.792969 15.277344 30 14.882812 30 14.320312 C 30.007812 13.117188 29.074219 11.597656 27.929688 10.941406 Z M 18.597656 5.480469 L 18.730469 5.402344 C 18.757812 5.386719 18.777344 5.375 18.808594 5.359375 L 19.230469 5.113281 C 19.238281 5.109375 19.25 5.105469 19.253906 5.101562 C 19.820312 4.804688 20.609375 4.550781 21.621094 5.023438 C 21.667969 5.042969 21.710938 5.0625 21.757812 5.089844 C 21.808594 5.117188 21.859375 5.144531 21.914062 5.171875 L 28.664062 9.070312 L 26.679688 10.214844 L 25.777344 10.734375 L 23.792969 11.882812 L 22.890625 12.402344 L 11.007812 19.265625 L 7.136719 17.03125 L 6.238281 16.511719 L 3.359375 14.851562 C 3.175781 14.746094 2.996094 14.660156 2.824219 14.589844 Z M 9.359375 24.980469 L 3.339844 21.503906 C 1.992188 20.726562 0.898438 18.832031 0.90625 17.285156 C 0.910156 15.734375 2.011719 15.109375 3.355469 15.886719 L 5.335938 17.03125 L 3.351562 18.175781 L 3.347656 19.214844 L 9.367188 22.691406 C 10.015625 23.066406 10.542969 23.882812 10.539062 24.515625 C 10.539062 25.144531 10.011719 25.355469 9.363281 24.980469 Z M 29.09375 13.882812 C 29.066406 14.488281 28.714844 14.847656 27.996094 15.277344 C 27.976562 15.292969 27.953125 15.300781 27.933594 15.3125 C 27.902344 15.332031 27.875 15.351562 27.839844 15.371094 C 27.816406 15.382812 27.796875 15.394531 27.777344 15.40625 L 11.433594 24.839844 C 11.347656 23.671875 10.457031 22.277344 9.371094 21.652344 L 4.25 18.695312 L 6.234375 17.550781 L 11.003906 20.300781 L 23.785156 12.921875 L 24.683594 12.398438 L 26.671875 11.253906 L 27.925781 11.976562 C 28.570312 12.351562 29.097656 13.167969 29.097656 13.800781 C 29.097656 13.828125 29.097656 13.855469 29.09375 13.882812 Z M 29.09375 13.882812 "/>
<path style=" stroke:none;fill-rule:nonzero;fill:rgb(0%,0%,0%);fill-opacity:1;" d="M 9.285156 15.789062 L 11.261719 16.96875 L 16.347656 14.113281 L 14.300781 12.890625 L 13.417969 12.363281 L 11.402344 11.15625 L 6.3125 14.011719 L 8.398438 15.261719 Z M 9.285156 15.789062 "/>
<path style=" stroke:none;fill-rule:nonzero;fill:rgb(0%,0%,0%);fill-opacity:1;" d="M 18.941406 8.070312 L 19.628906 7.683594 L 21.3125 6.742188 L 20.734375 6.394531 L 20.320312 6.148438 L 20.066406 6.292969 L 19.464844 6.632812 L 18.664062 7.082031 L 12.410156 10.589844 L 13.402344 11.179688 Z M 18.941406 8.070312 "/>
<path style=" stroke:none;fill-rule:nonzero;fill:rgb(0%,0%,0%);fill-opacity:1;" d="M 19.34375 8.992188 L 14.390625 11.773438 L 14.414062 11.785156 L 15.296875 12.316406 L 15.378906 12.363281 L 19.859375 9.851562 L 20.507812 9.484375 L 22.082031 8.601562 L 22.996094 8.089844 L 23.289062 7.921875 L 22.300781 7.332031 L 21.988281 7.507812 L 21.90625 7.554688 L 19.992188 8.628906 Z M 19.34375 8.992188 "/>
<path style=" stroke:none;fill-rule:nonzero;fill:rgb(0%,0%,0%);fill-opacity:1;" d="M 21.183594 10.253906 L 20.476562 10.648438 L 16.371094 12.957031 L 17.359375 13.546875 L 22.082031 10.894531 L 24.097656 9.765625 L 25.007812 9.253906 L 25.269531 9.105469 L 24.28125 8.515625 L 24 8.671875 L 23.089844 9.183594 Z M 21.183594 10.253906 "/>
<path style=" stroke:none;fill-rule:nonzero;fill:rgb(0%,0%,0%);fill-opacity:1;" d="M 27.40625 13.480469 C 27.351562 13.417969 27.269531 13.332031 27.175781 13.273438 L 26.671875 12.984375 L 11.636719 21.667969 L 11.832031 21.9375 C 11.933594 22.078125 12.03125 22.226562 12.121094 22.375 L 12.273438 22.625 L 27.019531 14.109375 L 27.144531 14.039062 C 27.144531 14.039062 26.703125 14.289062 27.144531 14.039062 C 27.585938 13.785156 27.402344 13.480469 27.402344 13.480469 Z M 27.40625 13.480469 "/>
</g>
</svg>
