<?xml version="1.0" encoding="UTF-8"?>
<svg xmlns="http://www.w3.org/2000/svg" xmlns:xlink="http://www.w3.org/1999/xlink" width="30px" height="30px" viewBox="0 0 30 30" version="1.1">
<g id="surface1">
<path style=" stroke:none;fill-rule:nonzero;fill:rgb(0%,0%,0%);fill-opacity:1;" d="M 27.511719 12.539062 C 26.578125 11.191406 25.289062 9.839844 23.96875 8.820312 L 23.910156 8.761719 L 23.941406 8.671875 C 24.898438 6.660156 25.378906 5.371094 25.378906 4.859375 C 25.378906 4.410156 25.050781 4.078125 24.628906 4.078125 C 24.328125 4.078125 24.058594 4.230469 23.851562 4.53125 C 23.640625 4.828125 23.429688 4.980469 23.191406 4.980469 C 22.921875 4.980469 22.710938 4.769531 22.46875 4.53125 C 22.199219 4.289062 21.929688 4.019531 21.570312 4.019531 C 21.210938 4.019531 20.910156 4.261719 20.640625 4.5 C 20.398438 4.710938 20.160156 4.921875 19.890625 4.921875 C 19.679688 4.921875 19.46875 4.800781 19.261719 4.5 C 18.988281 4.109375 18.691406 4.050781 18.449219 4.050781 C 18 4.050781 17.578125 4.410156 17.578125 4.828125 C 17.578125 5.761719 18.359375 7.441406 18.988281 8.699219 L 19.019531 8.789062 L 18.960938 8.851562 C 17.398438 10.109375 15.898438 11.820312 14.96875 13.410156 C 18.660156 13.53125 21.601562 16.558594 21.601562 20.28125 C 21.601562 21.539062 21.269531 22.738281 20.609375 23.820312 C 20.910156 23.851562 21.210938 23.851562 21.511719 23.851562 C 23.730469 23.851562 25.621094 23.28125 27 22.230469 C 27.71875 21.660156 28.261719 20.96875 28.648438 20.160156 C 29.039062 19.289062 29.25 18.328125 29.25 17.21875 C 29.25 15.808594 28.648438 14.191406 27.511719 12.539062 Z M 26.25 15.328125 C 26.160156 15.390625 26.039062 15.421875 25.949219 15.421875 C 25.738281 15.421875 25.53125 15.300781 25.410156 15.121094 C 24.871094 14.128906 24.03125 13.109375 23.070312 12.179688 C 22.949219 12.058594 22.890625 11.910156 22.859375 11.730469 C 22.859375 11.578125 22.921875 11.398438 23.039062 11.308594 C 23.160156 11.191406 23.308594 11.101562 23.488281 11.101562 C 23.640625 11.101562 23.820312 11.160156 23.941406 11.28125 C 24.988281 12.269531 25.890625 13.410156 26.519531 14.488281 C 26.640625 14.789062 26.550781 15.179688 26.25 15.328125 Z M 26.25 15.328125 "/>
<path style=" stroke:none;fill-rule:nonzero;fill:rgb(0%,0%,0%);fill-opacity:1;" d="M 6.539062 21.328125 C 4.230469 21.328125 2.039062 20.820312 0.75 20.039062 L 0.75 21.898438 C 0.75 22.199219 1.140625 22.710938 2.25 23.128906 C 3.359375 23.578125 4.890625 23.820312 6.539062 23.820312 C 7.351562 23.820312 8.128906 23.761719 8.820312 23.640625 C 8.398438 22.890625 8.128906 22.078125 7.980469 21.238281 C 7.5 21.300781 6.988281 21.328125 6.539062 21.328125 Z M 6.539062 21.328125 "/>
<path style=" stroke:none;fill-rule:nonzero;fill:rgb(0%,0%,0%);fill-opacity:1;" d="M 1.109375 18.71875 C 1.378906 18.960938 1.769531 19.171875 2.25 19.351562 C 3.359375 19.800781 4.890625 20.039062 6.539062 20.039062 C 7.050781 20.039062 7.5 20.011719 7.921875 19.980469 C 7.949219 19.078125 8.160156 18.210938 8.519531 17.398438 C 7.890625 17.488281 7.199219 17.519531 6.511719 17.519531 C 4.199219 17.519531 2.011719 17.011719 0.71875 16.230469 L 0.71875 18.121094 C 0.75 18.300781 0.871094 18.511719 1.109375 18.71875 Z M 1.109375 18.71875 "/>
<path style=" stroke:none;fill-rule:nonzero;fill:rgb(0%,0%,0%);fill-opacity:1;" d="M 2.25 15.601562 C 3.359375 16.050781 4.890625 16.289062 6.539062 16.289062 C 7.558594 16.289062 8.519531 16.199219 9.421875 16.019531 C 10.171875 15.058594 11.191406 14.308594 12.328125 13.890625 L 12.328125 12.511719 C 11.039062 13.320312 8.851562 13.800781 6.539062 13.800781 C 4.230469 13.800781 2.039062 13.289062 0.75 12.511719 L 0.75 14.398438 C 0.75 14.671875 1.140625 15.148438 2.25 15.601562 Z M 2.25 15.601562 "/>
<path style=" stroke:none;fill-rule:nonzero;fill:rgb(0%,0%,0%);fill-opacity:1;" d="M 2.25 11.789062 C 3.359375 12.238281 4.890625 12.480469 6.539062 12.480469 C 8.160156 12.480469 9.691406 12.238281 10.828125 11.789062 C 11.941406 11.339844 12.328125 10.859375 12.328125 10.558594 L 12.328125 8.671875 C 11.039062 9.480469 8.851562 9.960938 6.539062 9.960938 C 4.230469 9.960938 2.039062 9.449219 0.75 8.671875 L 0.75 10.558594 C 0.75 10.859375 1.140625 11.371094 2.25 11.789062 Z M 2.25 11.789062 "/>
<path style=" stroke:none;fill-rule:nonzero;fill:rgb(0%,0%,0%);fill-opacity:1;" d="M 1.109375 7.378906 C 1.378906 7.621094 1.769531 7.828125 2.25 8.011719 C 3.359375 8.460938 4.890625 8.699219 6.539062 8.699219 C 8.160156 8.699219 9.691406 8.460938 10.828125 8.011719 C 11.308594 7.828125 11.699219 7.589844 11.96875 7.378906 C 12.210938 7.171875 12.328125 6.960938 12.328125 6.78125 C 12.328125 6.390625 11.730469 5.910156 10.828125 5.550781 C 9.691406 5.101562 8.191406 4.859375 6.539062 4.859375 C 4.890625 4.859375 3.390625 5.101562 2.25 5.550781 C 1.320312 5.910156 0.75 6.390625 0.75 6.78125 C 0.75 6.960938 0.871094 7.171875 1.109375 7.378906 Z M 1.109375 7.378906 "/>
<path style=" stroke:none;fill-rule:nonzero;fill:rgb(0%,0%,0%);fill-opacity:1;" d="M 14.789062 14.578125 C 11.640625 14.578125 9.089844 17.128906 9.089844 20.28125 C 9.089844 23.429688 11.640625 25.980469 14.789062 25.980469 C 17.941406 25.980469 20.488281 23.429688 20.488281 20.28125 C 20.460938 17.128906 17.910156 14.578125 14.789062 14.578125 Z M 12.871094 17.25 C 13.5 17.25 13.980469 17.761719 13.980469 18.359375 C 13.980469 18.988281 13.46875 19.46875 12.871094 19.46875 C 12.238281 19.46875 11.761719 18.960938 11.761719 18.359375 C 11.761719 17.761719 12.269531 17.25 12.871094 17.25 Z M 13.261719 22.828125 C 13.109375 22.980469 12.929688 23.039062 12.75 23.039062 C 12.539062 23.039062 12.359375 22.949219 12.238281 22.828125 C 11.96875 22.53125 11.96875 22.078125 12.238281 21.808594 L 16.289062 17.699219 C 16.589844 17.429688 17.039062 17.429688 17.308594 17.699219 C 17.609375 18 17.609375 18.449219 17.308594 18.71875 Z M 16.679688 23.28125 C 16.050781 23.28125 15.570312 22.769531 15.570312 22.171875 C 15.570312 21.539062 16.078125 21.058594 16.679688 21.058594 C 17.308594 21.058594 17.789062 21.570312 17.789062 22.171875 C 17.789062 22.769531 17.28125 23.28125 16.679688 23.28125 Z M 16.679688 23.28125 "/>
</g>
</svg>
