<?xml version="1.0" encoding="UTF-8"?>
<svg xmlns="http://www.w3.org/2000/svg" xmlns:xlink="http://www.w3.org/1999/xlink" width="30px" height="30px" viewBox="0 0 30 30" version="1.1">
<g id="surface1">
<path style=" stroke:none;fill-rule:nonzero;fill:rgb(0%,0%,0%);fill-opacity:1;" d="M 24.109375 4.390625 L 5.890625 4.390625 C 5.0625 4.390625 4.390625 5.0625 4.390625 5.890625 L 4.390625 24.109375 C 4.390625 24.9375 5.0625 25.609375 5.890625 25.609375 L 22.609375 25.609375 L 25.609375 22.609375 L 25.609375 5.890625 C 25.609375 5.0625 24.9375 4.390625 24.109375 4.390625 Z M 18.75 24 L 12.347656 24 L 12.347656 20.773438 L 9.925781 20.773438 L 9.925781 24 L 7.5 24 L 7.5 20.246094 C 7.5 19.417969 8.171875 18.746094 9 18.746094 L 17.25 18.746094 C 18.078125 18.746094 18.75 19.417969 18.75 20.246094 Z M 22.5 15.375 C 22.5 16.203125 21.828125 16.875 21 16.875 L 9 16.875 C 8.171875 16.875 7.5 16.203125 7.5 15.375 L 7.5 5.890625 L 22.5 5.890625 Z M 22.5 15.375 "/>
</g>
</svg>
